<svg width="32" height="32" viewBox="0 0 32 32" fill="none" xmlns="http://www.w3.org/2000/svg">
  <!-- Background with gradient -->
  <defs>
    <radialGradient id="bg" cx="50%" cy="50%" r="50%">
      <stop offset="0%" style="stop-color:#161b22"/>
      <stop offset="100%" style="stop-color:#0d1117"/>
    </radialGradient>
  </defs>
  
  <rect width="32" height="32" fill="url(#bg)" rx="6"/>
  
  <!-- Subtle grid pattern -->
  <defs>
    <pattern id="grid" width="4" height="4" patternUnits="userSpaceOnUse">
      <path d="M 4 0 L 0 0 0 4" fill="none" stroke="#00d26a" stroke-width="0.2" opacity="0.1"/>
    </pattern>
  </defs>
  <rect width="32" height="32" fill="url(#grid)"/>
  
  <!-- Terminal window -->
  <rect x="4" y="6" width="24" height="20" fill="#000" stroke="#00d26a" stroke-width="1" rx="2" opacity="0.9"/>
  
  <!-- Terminal header with dots -->
  <rect x="4" y="6" width="24" height="4" fill="#00d26a" opacity="0.2" rx="2"/>
  <circle cx="7" cy="8" r="0.8" fill="#ff5f56"/>
  <circle cx="10" cy="8" r="0.8" fill="#ffbd2e"/>  
  <circle cx="13" cy="8" r="0.8" fill="#27ca3f"/>
  
  <!-- Terminal content (code lines) -->
  <rect x="6" y="12" width="2" height="1" fill="#00d26a"/>
  <rect x="9" y="12" width="8" height="1" fill="#00d26a" opacity="0.7"/>
  
  <rect x="6" y="14" width="4" height="1" fill="#00d26a" opacity="0.5"/>
  <rect x="11" y="14" width="6" height="1" fill="#00d26a" opacity="0.5"/>
  
  <rect x="6" y="16" width="3" height="1" fill="#00d26a" opacity="0.6"/>
  <rect x="10" y="16" width="12" height="1" fill="#00d26a" opacity="0.6"/>
  
  <rect x="6" y="18" width="7" height="1" fill="#00d26a" opacity="0.4"/>
  
  <rect x="6" y="20" width="5" height="1" fill="#00d26a" opacity="0.5"/>
  <rect x="12" y="20" width="4" height="1" fill="#00d26a" opacity="0.5"/>
  
  <!-- Cursor -->
  <rect x="6" y="22" width="1" height="2" fill="#00d26a">
    <animate attributeName="opacity" values="1;0;1" dur="1.5s" repeatCount="indefinite"/>
  </rect>
  
  <!-- Subtle glow effect -->
  <rect x="4" y="6" width="24" height="20" fill="none" stroke="#00d26a" stroke-width="0.5" rx="2" opacity="0.3"/>
</svg>
